<svg xmlns="http://www.w3.org/2000/svg" viewBox="0 0 1089.416 280.773">
  <defs/>
  <path fill="#6cc32e" d="M474.64 250.72h-86.595v-53.576h86.595zm0-83.617h-86.595v-49.302h86.595zM356.398 87.741v193.032h124.098l25.785-26.913v-56.73l-16.965-15.487 16.965-14.452v-52.53l-25.785-26.92H356.398m202.684 51.672l-20.47 21.024v120.334h30.04V167.865h30.668l27.514-28.452h-67.752m162.996 112.914h-66.353v-29.08h66.353zM653.112 139.42l-28.454 28.434h97.42v26.952h-75.904l-20.49 20.485v44.445l20.472 21.037h85.513l20.47-21.037v-99.292l-20.47-21.024h-78.557M983.66 251.216l-23.887-41.35 23.887-41.354h47.754l23.883 41.353-23.883 41.351zm64.82-112.277h-81.886l-40.941 70.926 40.941 70.906h81.887l40.935-70.906-40.935-70.926m-139.453.474L851.076 237.9l-57.932-98.487h-34.851l83.159 141.358h19.266l83.158-141.358h-34.848m-794.203 82.852L67.55 140.38l47.275-81.87h94.55l47.27 81.87-47.27 81.884zM243.145 0H81.056L0 140.381l81.056 140.392h162.089l81.037-140.392L243.145 0"/>
</svg>
